<svg width="800" height="180" viewBox="0 0 800 180" fill="none" xmlns="http://www.w3.org/2000/svg">
<path d="M61.327 111.669C65.1479 111.669 68.3321 110.075 70.8794 106.886C73.5541 103.698 75.7194 99.8079 77.3751 95.2166C79.1583 90.6253 80.4319 85.8427 81.1961 80.8688C81.9603 75.8949 82.3424 71.5586 82.3424 67.8601C82.3424 64.4166 81.7693 61.547 80.623 59.2514C79.4767 56.8282 76.993 55.6166 73.172 55.6166H64.5748L52.5387 111.669H61.327ZM49.864 123.912L41.6052 162.505C41.4078 163.427 40.5927 164.086 39.6495 164.086H4.93842C2.39493 164.086 0.497394 161.743 1.02564 159.255L25.1188 45.7772C25.5111 43.9294 27.1426 42.6079 29.0316 42.6079H69.9242C77.1841 42.6079 83.8071 42.9905 89.7934 43.7557C95.7796 44.521 100.938 46.0514 105.268 48.347C109.599 50.6427 112.974 53.9586 115.394 58.2949C117.814 62.5036 119.024 68.1789 119.024 75.321C119.024 81.9528 117.941 88.2659 115.776 94.2601C113.738 100.127 110.363 105.292 105.65 109.756C101.065 114.092 95.0791 117.535 87.6918 120.086C80.3046 122.637 71.3252 123.912 60.7538 123.912H49.864Z" fill="white"/>
<path d="M234.957 162.505C234.76 163.427 233.944 164.086 233.001 164.086H198.29C195.747 164.086 193.849 161.743 194.377 159.255L218.471 45.7772C218.863 43.9294 220.494 42.6079 222.383 42.6079H258.128C259.401 42.6079 260.35 43.7814 260.084 45.0262L234.957 162.505Z" fill="white"/>
<path d="M414.401 80.8696L473.972 1.59699C474.727 0.591537 475.912 0 477.169 0H492.616C493.441 0 493.911 0.943797 493.414 1.60261L421.278 97.1304L448.562 161.304C449.123 162.624 448.155 164.087 446.721 164.087H405.198C403.595 164.087 402.148 163.13 401.519 161.656L386.316 126.017L345.653 178.451C344.895 179.428 343.728 180 342.492 180H325.713C324.032 180 323.101 178.051 324.157 176.743L379.056 108.8L353.332 48.171C352.213 45.5332 354.149 42.6087 357.014 42.6087H396.838C397.64 42.6087 398.365 43.0885 398.679 43.8273L414.401 80.8696Z" fill="white"/>
<path d="M575.848 164.052C566.805 164.052 558.844 162.904 551.967 160.609C545.836 158.449 539.909 154.871 534.183 149.874C532.866 148.725 532.32 146.939 532.684 145.229L537.536 122.453C537.93 120.607 539.561 119.287 541.449 119.287H569.062C569.855 119.287 570.309 119.856 570.116 120.626C569.989 121.646 569.798 122.985 569.543 124.643C569.416 126.301 569.225 128.151 568.97 130.191C568.843 132.232 568.779 134.209 568.779 136.122C568.779 141.351 569.416 145.113 570.689 147.409C572.09 149.577 574.001 150.661 576.421 150.661C579.096 150.661 581.579 149.768 583.872 147.983C586.292 146.197 588.33 143.965 589.985 141.287C591.641 138.609 592.915 135.675 593.806 132.487C594.825 129.171 595.335 125.983 595.335 122.922C595.335 117.055 593.806 112.719 590.75 109.913C588.363 107.523 585.511 106.106 582.193 105.664C580.975 105.501 580.03 104.414 580.257 103.207C580.542 101.692 580.855 100.293 581.197 99.0086C581.579 97.3507 581.898 95.884 582.152 94.6086C582.186 94.4855 582.218 94.3672 582.249 94.2539C582.537 93.1875 583.622 92.3199 584.725 92.2622C588.052 92.0882 590.888 91.4674 593.233 90.3999C596.163 88.997 598.519 87.1478 600.302 84.8521C602.213 82.4289 603.55 79.6231 604.314 76.4347C605.078 73.1188 605.461 69.6115 605.461 65.913C605.461 64.3826 605.333 62.8521 605.078 61.3217C604.951 59.6637 604.633 58.197 604.123 56.9217C603.614 55.5188 602.85 54.4347 601.831 53.6695C600.939 52.7768 599.665 52.3304 598.01 52.3304C594.571 52.3304 591.195 54.371 587.884 58.4521C584.864 62.3227 582.131 68.7742 579.684 77.8068C579.445 78.6863 578.65 79.3043 577.739 79.3043H551.365C548.822 79.3043 546.924 76.9611 547.453 74.4729L551.721 54.3874C552 53.0719 552.793 51.9161 553.953 51.2354C557.337 49.2493 561.133 47.4462 565.34 45.826C569.543 44.1681 574.574 42.6376 580.433 41.2347C586.419 39.8318 593.233 39.1304 600.875 39.1304C605.843 39.1304 610.81 39.5768 615.777 40.4695C620.745 41.2347 625.202 42.7014 629.151 44.8695C633.226 47.0376 636.474 49.971 638.894 53.6695C641.442 57.3681 642.715 62.0869 642.715 67.826C642.715 72.1623 641.951 75.9883 640.423 79.3043C639.022 82.4927 636.92 85.3623 634.118 87.913C631.316 90.4637 627.941 92.7594 623.992 94.8C620.171 96.8405 615.777 98.7536 610.81 100.539C614.631 100.922 618.197 101.687 621.509 102.835C624.82 103.983 627.686 105.577 630.106 107.617C632.653 109.658 634.627 112.145 636.028 115.078C637.557 118.012 638.321 121.519 638.321 125.6C638.321 131.084 636.856 136.185 633.927 140.904C630.997 145.623 626.794 149.704 621.318 153.148C615.968 156.591 609.409 159.27 601.64 161.183C593.998 163.096 585.4 164.052 575.848 164.052Z" fill="white"/>
<path d="M741.63 44.0213C742.022 42.1735 743.654 40.8521 745.543 40.8521H781.288C782.561 40.8521 783.51 42.0255 783.244 43.2703L761.217 146.261H797.555C798.819 146.261 799.766 147.418 799.516 148.657L797.076 160.727C796.888 161.66 796.068 162.33 795.116 162.33H721.45C718.906 162.33 717.009 159.988 717.537 157.5L741.63 44.0213Z" fill="white"/>
</svg>
